# File created by Blade
# Date/Time:  Wed Apr 08 17:00:17 2015
# Frame Rate: 120.000 fps
#------------------------------------------------------
:FULLY-SPECIFIED
:DEGREES
1542
root 1.142912 35.680728 2.816920 -31.156388 -80.484509 17.167652
Spine 6.556578 1.415630 -7.508409
Head -2.851636 8.216820 -7.321863
LeftShoulder 7.432062 -1.709160 25.271837
LeftArm 91.571116 45.095067 -42.938953
LeftForeArm -42.958178 -0.000000 94.685982
LeftHand -32.315416 -0.000000 22.135953
LeftHandThumb1 -26.253704 0.000000 33.147579
RightShoulder 1.399340 -28.964815 -23.526413
RightArm 112.857989 16.781878 115.042571
RightForeArm 62.677611 -0.000000 47.743025
RightHand 16.290768 -0.000000 -23.307174
RightHandThumb1 -24.326973 -0.000000 -32.862282
LeftUpLeg 16.202093 7.558415 6.173502
LeftLeg 11.572501 -0.000000 -0.000000
LeftFoot -14.303026 -2.260401 -12.401112
LeftToeBase 10.415635 -0.000000 -0.000000
RightUpLeg 24.551803 -16.849801 -17.994640
RightLeg 1.771766 -0.000000 -0.000000
RightFoot -11.635067 6.520558 19.836185
RightToeBase 14.676018 -0.000000 -0.000000
1543
root 1.146283 35.680860 2.814547 -31.134069 -80.476212 17.140110
Spine 6.558049 1.460903 -7.522245
Head -2.720620 8.276545 -7.255610
LeftShoulder 7.427279 -1.738732 25.279641
LeftArm 91.558234 45.091800 -42.992673
LeftForeArm -42.916063 -0.000000 94.657595
LeftHand -32.151595 -0.000000 22.019515
LeftHandThumb1 -26.253704 0.000000 33.147579
RightShoulder 1.472409 -28.854930 -23.591130
RightArm 112.834176 16.959617 114.967415
RightForeArm 62.300309 -0.000000 46.085674
RightHand 16.256493 -0.000000 -23.403591
RightHandThumb1 -24.326973 -0.000000 -32.862282
LeftUpLeg 16.196876 7.556673 6.176511
LeftLeg 11.574152 -0.000000 -0.000000
LeftFoot -14.302345 -2.248716 -12.379786
LeftToeBase 10.402557 -0.000000 -0.000000
RightUpLeg 24.553012 -16.849453 -17.987238
RightLeg 1.770037 -0.000000 -0.000000
RightFoot -11.641208 6.505584 19.836272
RightToeBase 14.657350 -0.000000 -0.000000
1544
root 1.150063 35.681125 2.811016 -31.038784 -80.455800 17.033362
Spine 6.567653 1.492250 -7.533646
Head -2.588217 8.306468 -7.193356
LeftShoulder 7.439948 -1.770791 25.282938
LeftArm 91.514900 45.089178 -43.050033
LeftForeArm -42.820161 -0.000000 94.672223
LeftHand -32.116525 -0.000000 22.017324
LeftHandThumb1 -26.253704 0.000000 33.147579
RightShoulder 1.549185 -28.751669 -23.660617
RightArm 112.791433 17.127811 114.881062
RightForeArm 61.968049 0.000000 44.485773
RightHand 16.119575 -0.000000 -23.408919
RightHandThumb1 -24.326973 -0.000000 -32.862282
LeftUpLeg 16.187712 7.530293 6.186302
LeftLeg 11.586397 -0.000000 -0.000000
LeftFoot -14.302166 -2.258314 -12.395524
LeftToeBase 10.426751 -0.000000 -0.000000
RightUpLeg 24.559047 -16.865867 -17.980779
RightLeg 1.787178 -0.000000 -0.000000
RightFoot -11.639347 6.512912 19.831594
RightToeBase 14.632977 -0.000000 -0.000000
1545
root 1.155928 35.680969 2.810178 -30.983849 -80.416252 16.970024
Spine 6.581458 1.507805 -7.557202
Head -2.461782 8.293440 -7.137859
LeftShoulder 7.457646 -1.804876 25.285530
LeftArm 91.426163 45.090965 -43.148034
LeftForeArm -42.786839 0.000000 94.705977
LeftHand -32.204215 0.000000 22.172993
LeftHandThumb1 -26.253704 0.000000 33.147579
RightShoulder 1.629446 -28.692262 -23.707009
RightArm 112.828695 17.300524 114.746005
RightForeArm 61.838800 -0.000000 42.822656
RightHand 16.003704 0.000000 -23.137810
RightHandThumb1 -24.326973 -0.000000 -32.862282
LeftUpLeg 16.166554 7.496113 6.178720
LeftLeg 11.607012 -0.000000 -0.000000
LeftFoot -14.297939 -2.278831 -12.398449
LeftToeBase 10.434254 -0.000000 -0.000000
RightUpLeg 24.568414 -16.891375 -17.992607
RightLeg 1.794910 -0.000000 -0.000000
RightFoot -11.644453 6.513882 19.845881
RightToeBase 14.671988 -0.000000 -0.000000
1546
root 1.160685 35.681030 2.808723 -30.913722 -80.387338 16.893289
Spine 6.592720 1.528835 -7.574721
Head -2.349320 8.252853 -7.091248
LeftShoulder 7.458705 -1.824480 25.295122
LeftArm 91.370052 45.091742 -43.225735
LeftForeArm -42.746312 0.000000 94.721967
LeftHand -32.093748 -0.000000 22.254968
LeftHandThumb1 -26.253704 0.000000 33.147579
RightShoulder 1.711921 -28.580525 -23.780617
RightArm 112.778589 17.524682 114.576623
RightForeArm 62.196329 -0.000000 41.183789
RightHand 15.829734 0.000000 -22.744410
RightHandThumb1 -24.326973 -0.000000 -32.862282
LeftUpLeg 16.152546 7.469521 6.178051
LeftLeg 11.616972 -0.000000 -0.000000
LeftFoot -14.295781 -2.294572 -12.426977
LeftToeBase 10.439899 -0.000000 -0.000000
RightUpLeg 24.572878 -16.899022 -17.991341
RightLeg 1.803456 -0.000000 -0.000000
RightFoot -11.648715 6.506286 19.876444
RightToeBase 14.664036 -0.000000 -0.000000
1547
root 1.162683 35.681314 2.805075 -30.839058 -80.365407 16.817269
Spine 6.589667 1.576793 -7.599261
Head -2.217914 8.151772 -7.022600
LeftShoulder 7.469280 -1.821267 25.319094
LeftArm 91.327679 45.090752 -43.309548
LeftForeArm -42.732367 -0.000000 94.730827
LeftHand -32.110890 -0.000000 22.234706
LeftHandThumb1 -26.253704 0.000000 33.147579
RightShoulder 1.797556 -28.441343 -23.847214
RightArm 112.650131 17.811880 114.351534
RightForeArm 62.669866 -0.000000 39.618836
RightHand 15.434678 -0.000000 -22.000727
RightHandThumb1 -24.326973 -0.000000 -32.862282
LeftUpLeg 16.145152 7.476564 6.197507
LeftLeg 11.613953 -0.000000 -0.000000
LeftFoot -14.276999 -2.336208 -12.414155
LeftToeBase 10.425524 -0.000000 -0.000000
RightUpLeg 24.581463 -16.919486 -17.985438
RightLeg 1.798822 -0.000000 -0.000000
RightFoot -11.652565 6.495688 19.848930
RightToeBase 14.681080 -0.000000 -0.000000
1548
root 1.167559 35.681781 2.803308 -30.795352 -80.326314 16.766028
Spine 6.610749 1.614421 -7.637041
Head -2.134189 8.021927 -6.956684
LeftShoulder 7.482209 -1.837988 25.351173
LeftArm 91.264304 45.093234 -43.408883
LeftForeArm -42.714239 -0.000000 94.737839
LeftHand -32.126098 -0.000000 22.223448
LeftHandThumb1 -26.253704 0.000000 33.147579
RightShoulder 1.881821 -28.378163 -23.860060
RightArm 112.631309 18.110088 114.061220
RightForeArm 63.041046 -0.000000 38.039309
RightHand 15.258208 -0.000000 -21.252109
RightHandThumb1 -24.326973 -0.000000 -32.862282
LeftUpLeg 16.139903 7.436851 6.189981
LeftLeg 11.602768 -0.000000 -0.000000
LeftFoot -14.260406 -2.362803 -12.461727
LeftToeBase 10.453795 -0.000000 -0.000000
RightUpLeg 24.594435 -16.943610 -17.996707
RightLeg 1.799083 -0.000000 -0.000000
RightFoot -11.643929 6.494944 19.875775
RightToeBase 14.645628 -0.000000 -0.000000
1549
root 1.171978 35.682050 2.801552 -30.679772 -80.291844 16.648796
Spine 6.621792 1.658721 -7.654478
Head -2.044996 7.876706 -6.903841
LeftShoulder 7.492351 -1.853739 25.374337
LeftArm 91.214242 45.105823 -43.516351
LeftForeArm -42.738391 -0.000000 94.711335
LeftHand -32.151728 -0.000000 22.133461
LeftHandThumb1 -26.253704 0.000000 33.147579
RightShoulder 1.982289 -28.286663 -23.900299
RightArm 112.532035 18.449648 113.752535
RightForeArm 63.209630 -0.000000 36.561222
RightHand 15.085722 -0.000000 -20.638385
RightHandThumb1 -24.326973 -0.000000 -32.862282
LeftUpLeg 16.126605 7.453961 6.208009
LeftLeg 11.604308 -0.000000 -0.000000
LeftFoot -14.255085 -2.404003 -12.434670
LeftToeBase 10.478875 -0.000000 -0.000000
RightUpLeg 24.605425 -16.976253 -17.994170
RightLeg 1.792342 -0.000000 -0.000000
RightFoot -11.643145 6.485048 19.869932
RightToeBase 14.658503 -0.000000 -0.000000
1550
root 1.177157 35.682459 2.799816 -30.601032 -80.254933 16.570260
Spine 6.637573 1.704834 -7.677822
Head -1.964793 7.740139 -6.855274
LeftShoulder 7.504653 -1.835580 25.379929
LeftArm 91.254366 45.067548 -43.532673
LeftForeArm -42.791755 -0.000000 94.674174
LeftHand -32.157202 0.000000 22.078181
LeftHandThumb1 -26.253704 0.000000 33.147579
RightShoulder 2.058480 -28.345511 -23.885123
RightArm 112.604583 18.735388 113.396255
RightForeArm 63.044570 -0.000000 35.080538
RightHand 14.936806 -0.000000 -20.237212
RightHandThumb1 -24.326973 -0.000000 -32.862282
LeftUpLeg 16.112008 7.443577 6.209894
LeftLeg 11.599147 -0.000000 -0.000000
LeftFoot -14.241544 -2.423515 -12.435682
LeftToeBase 10.492950 -0.000000 -0.000000
RightUpLeg 24.621583 -16.998968 -17.996488
RightLeg 1.769789 -0.000000 -0.000000
RightFoot -11.628165 6.470690 19.879712
RightToeBase 14.663630 -0.000000 -0.000000
